<?xml version="1.0" encoding="UTF-8" standalone="no"?>
<!-- Created with Inkscape (http://www.inkscape.org/) -->

<svg
   width="48"
   height="48"
   viewBox="0 0 12.7 12.7"
   version="1.1"
   id="svg1"
   xmlns:xlink="http://www.w3.org/1999/xlink"
   xmlns="http://www.w3.org/2000/svg"
   xmlns:svg="http://www.w3.org/2000/svg">
  <defs
     id="defs1">
    <radialGradient
       xlink:href="#linearGradient30-1"
       id="radialGradient31-5"
       cx="978.46625"
       cy="274.84631"
       fx="978.46625"
       fy="274.84631"
       r="171.67577"
       gradientTransform="matrix(0.03610753,0,0,0.0240661,-29.007977,-0.16834118)"
       gradientUnits="userSpaceOnUse" />
    <linearGradient
       id="linearGradient30-1">
      <stop
         style="stop-color:#ffe153;stop-opacity:1;"
         offset="0"
         id="stop30" />
      <stop
         style="stop-color:#836800;stop-opacity:1;"
         offset="0.61323529"
         id="stop34" />
      <stop
         style="stop-color:#5c4900;stop-opacity:1;"
         offset="1"
         id="stop31" />
    </linearGradient>
  </defs>
  <g
     id="layer1">
    <path
       id="path29-5"
       style="opacity:0.99;fill:url(#radialGradient31-5);fill-rule:nonzero;stroke:#000000;stroke-width:1.14714;stroke-linecap:round;stroke-linejoin:round;stroke-dasharray:none;stroke-opacity:1;paint-order:stroke fill markers"
       d="M 6.3219914,2.888108 5.4673163,3.8621279 5.3679134,4.0608545 5.487185,4.279529 6.1431251,4.9354707 6.1034006,5.4920064 5.9045876,4.9950639 5.6660485,4.637337 5.2685103,4.5379325 4.6921095,4.716796 4.5529763,4.9751994 4.7119738,5.4125474 4.9107024,5.5914108 5.1293771,5.6510893 V 5.2932814 L 5.3480518,5.034878 5.646184,5.05474 l 0.1391329,0.3379434 0.059678,0.2981323 -0.3180813,0.059594 0.01987,0.2584034 h 0.49694 L 6.0834551,6.7244292 5.9443163,7.1021022 5.7057786,6.6846996 5.3679148,6.5256202 H 5.0299726 l -0.099404,0.2385391 0.119267,0.2981323 H 5.348051 L 5.546781,7.0822386 5.3281866,7.3605049 5.0101062,7.4599108 4.5728399,7.4201016 4.2945728,7.1219686 c 0,0 0.2583351,-1.75e-5 0.238458,-0.099404 C 4.5131545,6.9231781 4.4137607,6.5852981 4.4137607,6.5852981 L 3.9367649,6.4858922 c 0,0 -0.1789444,0.1590307 -0.1789444,0.2385391 0,0.07951 0.059679,0.377673 0.059679,0.377673 L 4.0560366,7.2015082 3.8969579,7.5592357 3.3801503,7.9170429 2.9031538,7.8375035 2.6844792,7.5195047 3.1018832,7.4996416 3.3205563,7.102105 3.0621529,6.8834302 2.704345,6.9231621 2.4260779,7.2015117 2.3863462,7.4002395 1.8894049,6.5256254 2.1875379,6.5654344 2.2273471,6.2473561 2.0086739,6.2870879 2.0484056,5.790227 2.1875402,5.571553 2.465808,5.4721491 2.7242114,5.5914175 2.6844798,5.790227 V 5.9690923 L 3.002559,5.8100925 3.2609624,5.4721498 3.1615581,5.0944761 2.8832901,4.8162082 2.4459422,4.9354784 2.1080797,5.0944761 1.9092708,5.333015 1.7900013,5.8299577 1.6508681,5.3926901 2.1279442,4.8559384 V 4.677075 4.5578047 L 1.8098671,4.3789412 0.69679435,3.8223245 0.71665604,4.0409978 2.3068055,9.0897976 h 8.0303725 l 1.610096,-5.1879324 -1.232423,0.5565357 -0.238537,0.278268 0.516807,0.6162114 -0.159003,0.4969425 -0.119267,-0.675806 -0.636077,-0.3180777 -0.2981327,0.039809 -0.3578041,0.4372669 0.019862,0.3975382 0.5963458,0.2186732 -0.0994,-0.2981321 0.298212,-0.2584035 0.258404,0.059594 0.119187,0.3776723 0.05968,0.3379428 -0.218675,0.07946 -0.03973,0.278268 0.119266,-0.039732 0.07946,0.2584035 L 10.277578,7.3605098 10.039042,7.0424329 9.6812344,6.8437043 9.3831022,7.0027026 v 0.3975382 l 0.3578111,0.099404 0.21859,-0.019862 L 9.721047,7.7977802 9.1048356,7.9170491 8.6874289,7.6189168 8.4886243,7.1815682 8.8265692,7.0822455 8.9060247,6.7244369 8.5681588,6.4858978 8.2103537,6.6250324 8.170622,6.9033004 8.3494841,7.1219742 8.1308142,7.3008384 c 0,0 -0.2981547,0.2186726 -0.3975366,0.2186726 H 7.3754669 L 7.1370081,7.1418387 7.5544113,7.1021071 7.6935445,6.8437036 7.4947329,6.5454896 7.1370081,6.5654364 6.977926,6.7244341 6.838797,7.0622965 6.6202026,7.0027026 6.6002558,6.4660313 6.5207932,6.0088196 7.0376002,6.0286819 7.0773247,5.7504141 H 6.7990611 L 6.9183282,5.412551 7.1170567,5.0150142 7.3754608,5.0348759 7.4748633,5.333008 7.5345411,5.6709509 7.8525422,5.4920078 8.0314043,5.0944696 V 4.7366619 L 7.5345428,4.5975285 7.137006,4.6174754 6.8786025,4.7167995 6.6797923,5.034878 6.5605242,5.4721449 6.4809856,4.9752029 7.137006,4.2993971 7.2761393,4.0211291 Z M 2.4062078,9.2487889 2.604937,10.004133 10.078771,9.9445394 10.23785,9.3283283 Z" />
  </g>
</svg>
